<?xml version="1.0" standalone="no"?>
<!DOCTYPE svg PUBLIC "-//W3C//DTD SVG 20010904//EN"
 "http://www.w3.org/TR/2001/REC-SVG-20010904/DTD/svg10.dtd">
<svg version="1.0" xmlns="http://www.w3.org/2000/svg"
 width="1280.000000pt" height="1280.000000pt" viewBox="0 0 1280.000000 1280.000000"
 preserveAspectRatio="xMidYMid meet">
<metadata>
Created by potrace 1.11, written by Peter Selinger 2001-2013
</metadata>
<g transform="translate(0.000000,1280.000000) scale(0.100000,-0.100000)"
fill="#000000" stroke="none">
<path d="M7845 9732 c-374 -26 -916 -323 -1392 -762 l-55 -51 -81 74 c-45 40
-118 102 -162 137 -44 36 -82 67 -85 70 -3 3 -45 35 -95 70 -471 340 -895 497
-1210 449 -148 -23 -262 -82 -367 -191 -113 -116 -200 -304 -239 -513 -5 -27
-11 -61 -14 -75 -26 -134 -26 -638 0 -764 2 -12 7 -43 10 -71 3 -27 7 -61 10
-75 2 -14 7 -41 9 -60 3 -19 14 -82 26 -140 12 -58 24 -119 26 -136 l5 -31
-128 -42 c-70 -23 -137 -46 -148 -51 -11 -5 -72 -30 -135 -55 -165 -67 -450
-208 -458 -227 -2 -5 -8 -8 -14 -8 -5 0 -51 -28 -101 -61 -560 -375 -712 -790
-440 -1203 59 -90 243 -273 352 -350 182 -130 428 -262 661 -356 174 -70 191
-76 308 -115 112 -37 114 -38 107 -64 -36 -139 -84 -457 -100 -656 -7 -84 -8
-386 -1 -435 3 -19 7 -62 11 -95 17 -171 89 -401 166 -532 54 -92 172 -203
259 -246 112 -55 185 -71 325 -71 371 0 825 223 1333 653 70 59 138 119 152
133 l24 26 71 -61 c38 -34 79 -70 90 -81 11 -10 61 -51 110 -91 381 -305 728
-488 1060 -560 17 -4 91 -9 165 -10 112 -3 148 0 210 16 189 51 331 172 428
365 51 100 96 246 117 380 3 16 7 38 10 49 24 112 24 481 0 695 -17 146 -31
237 -62 395 -14 72 -26 136 -27 143 -1 8 50 31 139 61 349 119 669 274 888
429 137 96 279 228 358 332 64 83 133 226 152 312 15 67 16 178 2 253 -23 128
-129 308 -259 440 -73 73 -102 98 -215 185 -136 105 -472 283 -701 373 -84 33
-355 128 -377 132 -1 0 5 32 13 70 17 78 50 261 57 315 6 40 17 122 22 165 8
64 19 275 18 360 0 247 -28 449 -85 620 -35 105 -54 145 -115 238 -92 143
-241 250 -392 283 -42 9 -193 19 -236 16z m194 -359 c218 -66 330 -472 287
-1033 -15 -197 -74 -552 -95 -573 -4 -4 -48 2 -97 13 -99 24 -174 39 -219 46
-16 3 -50 9 -75 14 -42 9 -185 33 -275 45 -22 3 -49 7 -60 10 -11 2 -49 7 -85
10 -36 3 -74 8 -85 10 -11 2 -30 4 -41 4 -16 1 -46 33 -105 114 -46 61 -86
114 -89 117 -3 3 -44 52 -90 110 -90 112 -260 306 -330 379 l-42 43 44 39 c23
22 52 47 63 57 11 9 47 40 80 68 87 74 264 205 359 266 45 29 90 59 101 66 53
34 289 144 358 167 75 24 95 29 197 44 62 9 135 3 199 -16z m-2987 -7 c280
-66 622 -268 986 -580 61 -54 112 -100 112 -104 0 -4 -20 -28 -43 -53 -181
-197 -326 -370 -470 -561 -61 -82 -118 -148 -126 -149 -9 0 -25 -2 -36 -3 -11
-2 -49 -6 -85 -10 -36 -3 -75 -8 -85 -10 -11 -2 -42 -7 -70 -10 -27 -4 -75
-11 -105 -16 -30 -5 -68 -12 -85 -14 -45 -8 -88 -15 -110 -20 -11 -3 -69 -14
-130 -26 -60 -12 -132 -28 -159 -36 -77 -22 -83 -20 -95 34 -31 134 -65 352
-81 512 -9 91 -6 489 4 530 3 13 8 42 11 65 29 200 124 384 227 436 78 40 211
46 340 15z m1542 -1140 c32 -37 68 -79 80 -94 11 -15 31 -38 43 -52 40 -47 93
-115 93 -122 0 -3 -15 -4 -32 -1 -39 7 -684 8 -745 1 -24 -2 -43 0 -43 5 0 8
101 141 120 157 3 3 34 39 69 80 35 41 98 113 140 158 l76 84 70 -74 c38 -41
96 -105 129 -142z m191 -610 c194 -10 290 -18 298 -23 17 -10 347 -521 347
-537 0 -2 17 -33 39 -67 58 -96 222 -409 283 -541 l17 -36 -98 -194 c-108
-215 -155 -301 -249 -463 -171 -294 -328 -527 -357 -531 -10 -2 -73 -6 -140
-9 -66 -4 -149 -9 -185 -11 -84 -5 -594 -5 -685 0 -237 14 -307 18 -322 20 -9
2 -40 36 -67 77 -89 130 -225 344 -276 434 -10 17 -33 57 -52 90 -110 188
-298 557 -298 585 0 17 147 315 225 455 15 28 41 75 58 105 17 30 62 107 100
170 38 63 85 140 103 170 71 119 190 284 206 286 35 4 188 14 318 20 74 4 136
7 137 8 5 4 501 -3 598 -8z m-1525 -86 c-6 -11 -37 -62 -69 -113 -83 -133
-174 -291 -275 -479 -32 -60 -59 -108 -61 -108 -14 0 -214 584 -203 595 8 9
349 78 558 113 30 5 56 10 58 11 1 0 -2 -8 -8 -19z m2765 -75 c66 -15 121 -28
123 -29 4 -5 -126 -397 -166 -501 l-39 -100 -33 65 c-72 143 -231 420 -326
567 -30 46 -54 85 -54 87 0 5 375 -62 495 -89z m-3631 -357 c66 -202 174 -486
244 -641 l21 -47 -48 -113 c-94 -220 -253 -660 -275 -764 -4 -18 -11 -35 -16
-38 -7 -4 -212 61 -265 85 -11 5 -67 28 -125 51 -502 202 -880 510 -916 746
-17 117 63 267 218 405 39 35 78 67 87 72 9 5 18 12 21 15 11 13 108 79 190
128 164 98 363 189 590 270 147 53 171 61 186 62 6 1 46 -104 88 -231z m4199
201 c252 -86 566 -228 724 -329 222 -141 378 -291 441 -427 34 -74 37 -175 8
-243 -41 -93 -140 -210 -271 -320 -176 -146 -548 -334 -894 -451 -115 -39
-130 -39 -131 -3 0 44 -170 514 -274 761 l-55 131 40 94 c96 219 289 756 289
802 0 23 20 20 123 -15z m-579 -1479 c21 -58 42 -114 47 -125 23 -54 91 -287
85 -292 -4 -4 -12 -8 -19 -9 -7 -2 -21 -5 -32 -8 -60 -14 -122 -28 -140 -32
-11 -2 -31 -6 -45 -9 -79 -17 -355 -65 -373 -65 -5 0 1 15 12 33 35 52 210
344 240 400 16 29 38 69 50 91 12 21 40 74 62 119 l41 80 17 -39 c9 -21 34
-86 55 -144z m-3093 55 c63 -119 198 -351 285 -490 34 -55 61 -101 60 -103 -7
-6 -371 61 -581 108 -22 5 -29 11 -27 26 5 33 73 243 129 399 30 83 56 156 59
164 7 20 15 9 75 -104z m-191 -845 c25 -5 56 -12 70 -15 166 -36 574 -98 696
-107 26 -2 39 -13 75 -62 46 -63 287 -367 298 -376 4 -3 17 -18 29 -34 25 -32
138 -159 214 -241 26 -27 48 -52 47 -55 0 -3 -45 -43 -100 -90 -55 -47 -106
-90 -112 -95 -276 -235 -608 -426 -862 -497 -117 -32 -270 -32 -343 1 -64 29
-134 104 -170 181 -23 52 -58 146 -60 163 0 4 -5 31 -11 60 -28 140 -34 211
-34 387 0 131 8 285 17 336 2 10 7 48 11 84 7 62 29 192 50 300 3 14 8 38 11
54 8 44 9 45 71 30 32 -8 78 -19 103 -24z m3514 23 c4 -16 11 -51 31 -153 11
-57 34 -198 39 -240 7 -57 16 -142 21 -200 10 -108 4 -400 -10 -487 -3 -18 -8
-50 -11 -70 -18 -125 -73 -266 -134 -348 -74 -100 -198 -134 -378 -105 -81 13
-250 68 -317 103 -22 12 -42 21 -45 22 -12 1 -172 93 -250 143 -90 58 -281
198 -340 249 -170 148 -201 176 -198 183 2 5 30 37 63 72 76 81 168 185 236
268 30 36 56 67 60 70 3 3 63 80 133 172 69 92 134 169 144 172 9 3 44 8 77
11 33 4 71 8 85 10 14 2 48 7 75 10 28 4 57 8 65 10 8 2 40 7 70 10 30 3 71
10 90 15 19 5 53 11 75 14 22 3 51 8 65 11 14 3 36 7 50 10 72 13 132 26 200
44 96 24 98 24 104 4z m-1438 -203 c-7 -8 -52 -64 -102 -125 -76 -94 -230
-270 -285 -326 -15 -15 -22 -11 -90 64 -41 44 -82 89 -92 101 -10 12 -40 46
-67 77 -55 63 -180 216 -180 221 0 2 186 3 414 3 367 0 413 -2 402 -15z"/>
<path d="M6305 7102 c-355 -66 -596 -341 -598 -682 0 -133 21 -221 83 -336
123 -230 347 -362 614 -362 193 0 382 80 498 213 14 16 36 41 48 55 52 60 117
206 135 305 7 41 7 181 0 230 -11 66 -52 178 -89 242 -92 157 -244 270 -428
319 -58 15 -216 25 -263 16z"/>
</g>
</svg>
